<?xml version="1.0" encoding="UTF-8" standalone="no"?>
<svg width="92px" height="92px" viewBox="0 0 92 92" version="1.1" xmlns="http://www.w3.org/2000/svg" xmlns:xlink="http://www.w3.org/1999/xlink">
    <!-- Generator: Sketch 3.6.1 (26313) - http://www.bohemiancoding.com/sketch -->
    <title>Page 1</title>
    <desc>Created with Sketch.</desc>
    <defs></defs>
    <g id="Page-1" stroke="none" stroke-width="1" fill="none" fill-rule="evenodd">
        <g>
            <path d="M92,46 C92,71.405 71.406,92 46,92 C20.594,92 0,71.405 0,46 C0,20.595 20.594,0 46,0 C71.406,0 92,20.595 92,46" id="Fill-1" fill="#ABFCD9"></path>
            <path d="M37.7217,34.4336 C37.4997,33.9306 36.9117,33.7006 36.4087,33.9226 C35.9047,34.1436 35.6757,34.7316 35.8977,35.2356 C37.6427,39.2046 41.5717,41.7696 45.9067,41.7696 C50.4107,41.7696 54.5157,38.9426 56.1217,34.7356 C56.3177,34.2216 56.0597,33.6456 55.5457,33.4496 C55.0327,33.2536 54.4557,33.5106 54.2597,34.0256 C52.9467,37.4656 49.5897,39.7766 45.9067,39.7766 C42.3617,39.7766 39.1497,37.6796 37.7217,34.4336" id="Fill-3" fill="#000000"></path>
            <path d="M52.3774,31.4141 C52.9274,31.4141 53.3744,30.9681 53.3744,30.4171 C53.3744,30.0391 53.6814,29.7311 54.0604,29.7311 C54.4384,29.7311 54.7464,30.0391 54.7464,30.4171 C54.7464,30.9681 55.1924,31.4141 55.7424,31.4141 C56.2934,31.4141 56.7394,30.9681 56.7394,30.4171 C56.7394,28.9401 55.5374,27.7391 54.0604,27.7391 C52.5824,27.7391 51.3804,28.9401 51.3804,30.4171 C51.3804,30.9681 51.8274,31.4141 52.3774,31.4141" id="Fill-5" fill="#000000"></path>
            <path d="M35.5933,30.4175 C35.5933,30.9685 36.0393,31.4145 36.5903,31.4145 C37.1403,31.4145 37.5863,30.9685 37.5863,30.4175 C37.5863,30.0395 37.8943,29.7315 38.2723,29.7315 C38.6503,29.7315 38.9583,30.0395 38.9583,30.4175 C38.9583,30.9685 39.4053,31.4145 39.9553,31.4145 C40.5053,31.4145 40.9513,30.9685 40.9513,30.4175 C40.9513,28.9405 39.7493,27.7385 38.2723,27.7385 C36.7953,27.7385 35.5933,28.9405 35.5933,30.4175" id="Fill-7" fill="#000000"></path>
            <path d="M19.9165,28.4072 C20.4665,28.4072 20.9135,27.9612 20.9135,27.4102 C20.9135,27.2632 21.0325,27.1442 21.1795,27.1442 C21.3265,27.1442 21.4465,27.2632 21.4465,27.4102 C21.4465,27.9612 21.8925,28.4072 22.4425,28.4072 C22.9935,28.4072 23.4395,27.9612 23.4395,27.4102 C23.4395,26.1642 22.4255,25.1512 21.1795,25.1512 C19.9335,25.1512 18.9195,26.1642 18.9195,27.4102 C18.9195,27.9612 19.3665,28.4072 19.9165,28.4072" id="Fill-9" fill="#000000"></path>
            <path d="M69.5571,28.4072 C70.1071,28.4072 70.5541,27.9612 70.5541,27.4102 C70.5541,27.2632 70.6731,27.1442 70.8201,27.1442 C70.9671,27.1442 71.0871,27.2632 71.0871,27.4102 C71.0871,27.9612 71.5331,28.4072 72.0831,28.4072 C72.6341,28.4072 73.0801,27.9612 73.0801,27.4102 C73.0801,26.1642 72.0661,25.1512 70.8201,25.1512 C69.5741,25.1512 68.5601,26.1642 68.5601,27.4102 C68.5601,27.9612 69.0071,28.4072 69.5571,28.4072" id="Fill-11" fill="#000000"></path>
            <path d="M18.8672,36.252 C17.1402,34.216 16.3102,31.63 16.5292,28.969 C16.9802,23.478 21.8142,19.377 27.3082,19.829 C29.8192,20.035 32.1112,21.154 33.8122,22.99 C31.3312,25.804 29.8132,29.484 29.7812,33.513 C28.8932,33.954 27.9142,34.188 26.9112,34.189 C24.3482,34.189 22.0252,32.672 20.9932,30.326 C20.7722,29.822 20.1832,29.593 19.6802,29.815 C19.1772,30.036 18.9482,30.624 19.1692,31.128 C20.5192,34.198 23.5582,36.182 26.9112,36.182 C27.9422,36.181 28.9532,35.992 29.9052,35.632 C30.0432,36.751 30.2952,37.834 30.6512,38.871 C29.0992,39.585 27.3962,39.89 25.6702,39.748 C23.0092,39.529 20.5932,38.288 18.8672,36.252 M59.2452,33.645 C59.2452,41 53.2622,46.983 45.9072,46.983 C38.5522,46.983 32.5682,41 32.5682,33.645 C32.5682,26.29 38.5522,20.306 45.9072,20.306 C53.2622,20.306 59.2452,26.29 59.2452,33.645 M64.6922,19.829 C70.1822,19.376 75.0192,23.478 75.4712,28.969 C75.6902,31.63 74.8592,34.216 73.1332,36.252 C71.4072,38.288 68.9912,39.529 66.3302,39.748 C64.5432,39.895 62.7812,39.568 61.1862,38.799 C61.5372,37.763 61.7852,36.679 61.9182,35.561 C62.9202,35.966 63.9932,36.181 65.0892,36.182 C68.4422,36.182 71.4812,34.198 72.8302,31.128 C73.0522,30.624 72.8232,30.036 72.3202,29.815 C71.8152,29.593 71.2282,29.822 71.0062,30.326 C69.9742,32.672 67.6522,34.189 65.0892,34.189 C64.0152,34.188 62.9662,33.922 62.0302,33.419 C61.9752,29.476 60.5002,25.874 58.0932,23.096 C59.8042,21.197 62.1342,20.039 64.6922,19.829 M71.6942,40.981 C73.0332,40.241 74.2422,39.258 75.2612,38.057 C77.4692,35.452 78.5322,32.144 78.2522,28.741 C77.6742,21.715 71.4902,16.47 64.4632,17.048 C61.2262,17.314 58.2732,18.767 56.0922,21.149 C53.3132,18.879 49.7662,17.515 45.9072,17.515 C42.0972,17.515 38.5942,18.846 35.8312,21.063 C33.6582,18.731 30.7352,17.311 27.5362,17.048 C20.5122,16.469 14.3252,21.715 13.7482,28.741 C13.4682,32.144 14.5312,35.452 16.7392,38.057 C17.7582,39.258 18.9672,40.241 20.3062,40.981 C12.9792,43.415 7.6782,50.328 7.6782,58.461 C7.6782,59.232 8.3032,59.856 9.0732,59.856 C9.8442,59.856 10.4682,59.232 10.4682,58.461 C10.4682,49.844 17.4782,42.834 26.0962,42.834 C29.9662,42.834 33.6792,44.259 36.5512,46.847 C36.7132,46.993 36.9022,47.089 37.0992,47.146 C37.6332,47.496 38.1892,47.815 38.7642,48.101 C29.3342,51.128 22.4892,59.979 22.4892,70.401 C22.4892,71.172 23.1132,71.796 23.8842,71.796 C24.6542,71.796 25.2792,71.172 25.2792,70.401 C25.2792,59.027 34.5332,49.773 45.9072,49.773 C57.2812,49.773 66.5342,59.027 66.5342,70.401 C66.5342,71.172 67.1592,71.796 67.9302,71.796 C68.7002,71.796 69.3252,71.172 69.3252,70.401 C69.3252,59.979 62.4792,51.128 53.0492,48.101 C53.5972,47.829 54.1272,47.525 54.6382,47.195 C54.9292,47.169 55.2152,47.058 55.4492,46.847 C58.3212,44.259 62.0342,42.834 65.9042,42.834 C74.5212,42.834 81.5322,49.844 81.5322,58.461 C81.5322,59.232 82.1562,59.856 82.9272,59.856 C83.6972,59.856 84.3222,59.232 84.3222,58.461 C84.3222,50.328 79.0202,43.415 71.6942,40.981" id="Fill-13" fill="#000000"></path>
        </g>
    </g>
</svg>