<?xml version="1.0" encoding="UTF-8" standalone="no"?>
<svg width="92px" height="92px" viewBox="0 0 92 92" version="1.1" xmlns="http://www.w3.org/2000/svg" xmlns:xlink="http://www.w3.org/1999/xlink">
    <!-- Generator: Sketch 3.6.1 (26313) - http://www.bohemiancoding.com/sketch -->
    <title>Page 1</title>
    <desc>Created with Sketch.</desc>
    <defs></defs>
    <g id="Page-1" stroke="none" stroke-width="1" fill="none" fill-rule="evenodd">
        <g>
            <path d="M92,46 C92,71.405 71.406,92 46,92 C20.594,92 0,71.405 0,46 C0,20.595 20.594,0 46,0 C71.406,0 92,20.595 92,46" id="Fill-1" fill="#BCEFB6"></path>
            <g id="Group-9" transform="translate(18.000000, 19.000000)" fill="#000000">
                <path d="M68.3784,58.1396 L50.9474,44.2536 C50.3594,43.7856 49.5304,43.7756 48.9314,44.2286 C46.8704,45.7866 44.2054,45.8976 42.4484,44.4976 L29.8854,34.4896 C29.1744,33.9236 28.1404,34.0396 27.5744,34.7506 C27.0084,35.4616 27.1264,36.4956 27.8364,37.0616 L33.5394,41.6056 C31.8224,42.3126 29.9704,42.6836 28.0934,42.6836 C20.2184,42.6836 13.8124,36.2766 13.8124,28.4016 C13.8124,20.5266 20.2184,14.1196 28.0934,14.1196 C34.6704,14.1196 40.2194,18.5886 41.8724,24.6486 L39.3354,22.6276 C38.6244,22.0606 37.5894,22.1786 37.0244,22.8896 C36.4584,23.5996 36.5754,24.6336 37.2864,25.1996 L49.8494,35.2076 C51.6064,36.6076 52.0934,39.2306 51.0354,41.5866 C50.7274,42.2716 50.9224,43.0786 51.5104,43.5466 L68.9414,57.4326 L68.3784,58.1396 Z M3.4284,28.4016 C3.4284,14.8016 14.4934,3.7366 28.0934,3.7366 C41.6934,3.7366 52.7584,14.8016 52.7584,28.4016 C52.7584,29.9566 52.6094,31.4956 52.3244,33.0056 C52.1874,32.8776 52.0454,32.7536 51.8984,32.6356 L45.6464,27.6546 C45.2534,18.3116 37.5324,10.8306 28.0934,10.8306 C18.4054,10.8306 10.5234,18.7126 10.5234,28.4016 C10.5234,38.0896 18.4054,45.9726 28.0934,45.9726 C30.9984,45.9726 33.8514,45.2446 36.3954,43.8796 L40.3994,47.0696 C41.0834,47.6156 41.8454,48.0256 42.6504,48.3066 C38.4434,51.3886 33.3684,53.0666 28.0934,53.0666 C14.4934,53.0666 3.4284,42.0016 3.4284,28.4016 L3.4284,28.4016 Z M72.2764,55.8856 L54.4884,41.7136 C54.9474,40.1666 54.9894,38.5796 54.6564,37.1116 C55.5754,34.3066 56.0474,31.3806 56.0474,28.4016 C56.0474,12.9876 43.5074,0.4476 28.0934,0.4476 C12.6804,0.4476 0.1404,12.9876 0.1404,28.4016 C0.1404,43.8156 12.6804,56.3546 28.0934,56.3546 C35.1014,56.3546 41.8044,53.7496 46.9684,49.0196 C47.1234,48.8776 47.2414,48.7116 47.3284,48.5346 C48.1844,48.3386 49.0264,48.0166 49.8264,47.5656 L67.6154,61.7366 C67.9074,61.9696 68.2694,62.0946 68.6394,62.0946 C68.7014,62.0946 68.7634,62.0916 68.8244,62.0836 C69.2584,62.0356 69.6544,61.8156 69.9254,61.4746 L72.5374,58.1956 C73.1044,57.4856 72.9864,56.4506 72.2764,55.8856 L72.2764,55.8856 Z" id="Fill-3"></path>
                <path d="M44.5366,39.3823 L33.1886,30.3423 C32.4776,29.7773 31.4436,29.8933 30.8776,30.6043 C30.3116,31.3153 30.4296,32.3493 31.1396,32.9153 L42.4876,41.9553 C42.7906,42.1963 43.1516,42.3133 43.5116,42.3133 C43.9946,42.3133 44.4736,42.1013 44.7976,41.6933 C45.3646,40.9833 45.2466,39.9483 44.5366,39.3823" id="Fill-5"></path>
                <path d="M47.4556,35.7183 L36.1076,26.6783 C35.3976,26.1123 34.3626,26.2293 33.7976,26.9403 C33.2316,27.6503 33.3486,28.6843 34.0596,29.2503 L45.4066,38.2903 C45.7096,38.5313 46.0706,38.6483 46.4306,38.6483 C46.9136,38.6483 47.3926,38.4363 47.7166,38.0293 C48.2836,37.3183 48.1656,36.2833 47.4556,35.7183" id="Fill-7"></path>
            </g>
        </g>
    </g>
</svg>