<?xml version="1.0" encoding="UTF-8" standalone="no"?>
<svg width="92px" height="92px" viewBox="0 0 92 92" version="1.1" xmlns="http://www.w3.org/2000/svg" xmlns:xlink="http://www.w3.org/1999/xlink">
    <!-- Generator: Sketch 3.6.1 (26313) - http://www.bohemiancoding.com/sketch -->
    <title>Page 1</title>
    <desc>Created with Sketch.</desc>
    <defs></defs>
    <g id="Page-1" stroke="none" stroke-width="1" fill="none" fill-rule="evenodd">
        <g>
            <path d="M92,46 C92,71.405 71.406,92 46,92 C20.594,92 0,71.405 0,46 C0,20.595 20.594,0 46,0 C71.406,0 92,20.595 92,46" id="Fill-1" fill="#FFCD9F"></path>
            <g id="Group-17" transform="translate(17.000000, 11.000000)" fill="#000000">
                <path d="M4.0679,11.562 C4.4019,11.562 4.6729,11.833 4.6729,12.167 C4.6729,12.501 4.4019,12.772 4.0679,12.772 C3.7349,12.772 3.4639,12.501 3.4639,12.167 C3.4639,11.833 3.7349,11.562 4.0679,11.562 M4.0679,14.883 C5.5669,14.883 6.7849,13.665 6.7849,12.167 C6.7849,10.669 5.5669,9.45 4.0679,9.45 C2.5699,9.45 1.3519,10.669 1.3519,12.167 C1.3519,13.665 2.5699,14.883 4.0679,14.883" id="Fill-3"></path>
                <path d="M56.5034,29.4976 C56.8374,29.4976 57.1084,29.7686 57.1084,30.1026 C57.1084,30.4366 56.8374,30.7076 56.5034,30.7076 C56.1704,30.7076 55.8984,30.4366 55.8984,30.1026 C55.8984,29.7686 56.1704,29.4976 56.5034,29.4976 M56.5034,32.8196 C58.0024,32.8196 59.2204,31.6016 59.2204,30.1026 C59.2204,28.6046 58.0024,27.3866 56.5034,27.3866 C55.0054,27.3866 53.7874,28.6046 53.7874,30.1026 C53.7874,31.6016 55.0054,32.8196 56.5034,32.8196" id="Fill-5"></path>
                <path d="M39.4243,52.4395 L33.8133,47.1315 L52.8003,40.0295 L57.1553,45.2085 L39.4243,52.4395 Z M51.6403,65.8565 L32.5543,72.9955 L32.5543,50.0095 L38.0843,55.2415 C38.3643,55.5055 38.7293,55.6465 39.1003,55.6465 C39.2883,55.6465 39.4773,55.6105 39.6583,55.5365 L51.6403,50.6495 L51.6403,65.8565 Z M10.3593,65.8565 L10.3593,50.6495 L22.3413,55.5365 C22.5223,55.6105 22.7123,55.6465 22.8993,55.6465 C23.2703,55.6465 23.6353,55.5055 23.9153,55.2415 L29.4453,50.0095 L29.4453,72.9955 L10.3593,65.8565 Z M9.1993,40.0295 L28.1863,47.1315 L22.5753,52.4395 L4.8443,45.2085 L9.1993,40.0295 Z M30.9243,33.2075 L48.4543,38.4985 L31.0003,45.0265 L13.4953,38.4805 L30.9243,33.2075 Z M60.7233,44.8595 L54.6173,37.5975 C54.4593,37.4085 54.2603,37.2765 54.0473,37.1885 C53.8303,37.0135 53.5703,36.9045 53.2933,36.8705 L31.3503,30.2485 C31.0713,30.1645 30.7753,30.1645 30.4953,30.2485 L8.4523,36.9175 C8.4213,36.9265 8.3943,36.9425 8.3643,36.9545 C8.3173,36.9715 8.2703,36.9895 8.2243,37.0125 C8.1803,37.0335 8.1393,37.0595 8.0983,37.0845 C8.0593,37.1095 8.0193,37.1345 7.9823,37.1625 C7.9663,37.1745 7.9493,37.1845 7.9343,37.1965 C7.7283,37.2845 7.5363,37.4145 7.3823,37.5975 L1.2763,44.8595 C0.9713,45.2215 0.8593,45.7075 0.9723,46.1655 C1.0863,46.6245 1.4113,47.0015 1.8493,47.1795 L7.4023,49.4445 L7.4023,66.8815 C7.4023,67.4975 7.7853,68.0495 8.3623,68.2665 L30.4053,76.5105 C30.5743,76.5725 30.7493,76.6045 30.9243,76.6045 C30.9493,76.6045 30.9743,76.5995 31.0003,76.5985 C31.0263,76.5995 31.0503,76.6045 31.0763,76.6045 C31.2513,76.6045 31.4253,76.5725 31.5943,76.5105 L53.6373,68.2665 C54.2153,68.0495 54.5973,67.4975 54.5973,66.8815 L54.5973,49.4445 L60.1503,47.1795 C60.5883,47.0015 60.9143,46.6245 61.0273,46.1655 C61.1403,45.7075 61.0283,45.2215 60.7233,44.8595 L60.7233,44.8595 Z" id="Fill-7"></path>
                <path d="M48.8818,10.3994 C49.0878,10.6064 49.3578,10.7094 49.6288,10.7094 C49.8988,10.7094 50.1688,10.6064 50.3748,10.3994 L51.5208,9.2534 L52.6668,10.3994 C52.8738,10.6064 53.1438,10.7094 53.4138,10.7094 C53.6838,10.7094 53.9538,10.6064 54.1598,10.3994 C54.5718,9.9874 54.5718,9.3184 54.1598,8.9064 L53.0138,7.7604 L54.1598,6.6144 C54.5718,6.2024 54.5718,5.5344 54.1598,5.1224 C53.7478,4.7094 53.0798,4.7094 52.6668,5.1224 L51.5208,6.2684 L50.3748,5.1224 C49.9628,4.7094 49.2948,4.7094 48.8818,5.1224 C48.4698,5.5344 48.4698,6.2024 48.8818,6.6144 L50.0278,7.7604 L48.8818,8.9064 C48.4698,9.3184 48.4698,9.9874 48.8818,10.3994" id="Fill-9"></path>
                <path d="M13.4785,30.8491 C13.6845,31.0551 13.9545,31.1591 14.2245,31.1591 C14.4945,31.1591 14.7645,31.0551 14.9715,30.8491 L16.1175,29.7031 L17.2635,30.8491 C17.4695,31.0551 17.7395,31.1591 18.0095,31.1591 C18.2805,31.1591 18.5505,31.0551 18.7565,30.8491 C19.1685,30.4371 19.1685,29.7681 18.7565,29.3561 L17.6105,28.2101 L18.7565,27.0641 C19.1685,26.6521 19.1685,25.9841 18.7565,25.5711 C18.3445,25.1591 17.6755,25.1591 17.2635,25.5711 L16.1175,26.7171 L14.9715,25.5711 C14.5585,25.1591 13.8905,25.1591 13.4785,25.5711 C13.0655,25.9841 13.0655,26.6521 13.4785,27.0641 L14.6245,28.2101 L13.4785,29.3561 C13.0655,29.7681 13.0655,30.4371 13.4785,30.8491" id="Fill-11"></path>
                <path d="M24.2212,10.8096 C25.0372,10.8096 25.6992,10.1476 25.6992,9.3306 C25.6992,6.3356 28.1362,3.8986 31.1312,3.8986 C34.1262,3.8986 36.5642,6.3356 36.5642,9.3306 C36.5642,12.3266 34.1262,14.7636 31.1312,14.7636 C30.3152,14.7636 29.6532,15.4246 29.6532,16.2416 L29.6532,21.5466 C29.6532,22.3626 30.3152,23.0246 31.1312,23.0246 C31.9482,23.0246 32.6102,22.3626 32.6102,21.5466 L32.6102,17.5896 C36.5322,16.8886 39.5192,13.4526 39.5192,9.3306 C39.5192,4.7056 35.7572,0.9426 31.1312,0.9426 C26.5062,0.9426 22.7432,4.7056 22.7432,9.3306 C22.7432,10.1476 23.4052,10.8096 24.2212,10.8096" id="Fill-13"></path>
                <path d="M31.1313,24.2856 C30.3723,24.2856 29.7563,24.9016 29.7563,25.6606 C29.7563,26.4196 30.3723,27.0346 31.1313,27.0346 C31.8903,27.0346 32.5063,26.4196 32.5063,25.6606 C32.5063,24.9016 31.8903,24.2856 31.1313,24.2856" id="Fill-15"></path>
            </g>
        </g>
    </g>
</svg>