<?xml version="1.0" encoding="UTF-8" standalone="no"?>
<svg width="92px" height="92px" viewBox="0 0 92 92" version="1.1" xmlns="http://www.w3.org/2000/svg" xmlns:xlink="http://www.w3.org/1999/xlink">
    <!-- Generator: Sketch 3.6.1 (26313) - http://www.bohemiancoding.com/sketch -->
    <title>Page 1</title>
    <desc>Created with Sketch.</desc>
    <defs></defs>
    <g id="Page-1" stroke="none" stroke-width="1" fill="none" fill-rule="evenodd">
        <g>
            <path d="M92,46 C92,71.405 71.406,92 46,92 C20.594,92 0,71.405 0,46 C0,20.595 20.594,0 46,0 C71.406,0 92,20.595 92,46" id="Fill-1" fill="#CFCDEF"></path>
            <path d="M76.7695,69.0996 L63.7525,73.4376 L63.7525,59.3566 L65.9855,60.4556 C66.1005,60.5136 66.2235,60.5396 66.3435,60.5396 C66.6445,60.5396 66.9335,60.3726 67.0745,60.0846 C67.2725,59.6826 67.1075,59.1946 66.7035,58.9966 L63.7845,57.5596 C63.7745,57.5546 63.7635,57.5516 63.7525,57.5476 L63.7525,49.9216 L63.7525,49.8266 C64.8165,49.3146 65.7325,48.4746 66.3255,47.3536 C67.1005,45.8886 67.1665,44.2366 66.6565,42.7846 C66.8105,42.7506 66.9635,42.7106 67.1145,42.6636 C68.5745,42.2156 69.7725,41.2236 70.4865,39.8726 C70.6985,39.4716 70.8525,39.0576 70.9615,38.6376 C70.9725,38.6326 70.9845,38.6326 70.9965,38.6286 L76.7695,36.7056 L76.7695,69.0996 Z M47.8895,61.1186 L50.0565,59.4766 C50.4145,59.2056 50.4855,58.6946 50.2155,58.3366 C49.9425,57.9786 49.4335,57.9076 49.0745,58.1796 L47.8895,59.0756 L47.8895,39.2606 L55.3705,43.2196 C55.1325,44.2036 55.1555,45.2386 55.4625,46.2326 C55.9115,47.6936 56.9035,48.8916 58.2545,49.6046 C58.3615,49.6626 58.4735,49.7036 58.5855,49.7306 C58.5885,49.7326 58.5905,49.7336 58.5935,49.7366 C59.3335,50.1266 60.1195,50.3286 60.9065,50.3776 L60.9065,56.1476 C60.8915,56.1396 60.8805,56.1286 60.8645,56.1216 L57.9455,54.6846 C57.5415,54.4856 57.0545,54.6536 56.8555,55.0566 C56.6575,55.4586 56.8235,55.9476 57.2275,56.1456 L60.1455,57.5816 C60.2615,57.6386 60.3835,57.6646 60.5055,57.6646 C60.6455,57.6646 60.7835,57.6256 60.9065,57.5566 L60.9065,73.4376 L47.8895,69.0996 L47.8895,61.1186 Z M32.0255,58.2796 L32.7855,57.8486 C33.1755,57.6266 33.3115,57.1306 33.0905,56.7406 C32.8765,56.3636 32.4095,56.2246 32.0255,56.4146 L32.0255,50.8926 C32.5725,50.7696 33.1095,50.5666 33.6195,50.2736 C33.6235,50.2706 33.6255,50.2676 33.6295,50.2666 C33.7415,50.2346 33.8505,50.1906 33.9545,50.1306 C35.2775,49.3676 36.2265,48.1356 36.6235,46.6596 C36.8945,45.6506 36.8795,44.6126 36.6045,43.6326 L45.0425,38.7276 L45.0425,62.2936 C45.0365,62.2846 45.0325,62.2746 45.0255,62.2656 C44.7545,61.9076 44.2445,61.8356 43.8865,62.1076 L42.3995,63.2336 C42.1695,63.0906 41.8745,63.0666 41.6125,63.1956 C41.2085,63.3926 41.0435,63.8806 41.2415,64.2836 L41.4755,64.7596 C41.5825,64.9776 41.7825,65.1366 42.0175,65.1926 C42.0795,65.2076 42.1425,65.2136 42.2045,65.2136 C42.3805,65.2136 42.5535,65.1576 42.6965,65.0496 L44.8685,63.4046 C44.9385,63.3516 44.9945,63.2876 45.0425,63.2176 L45.0425,69.0996 L32.0255,73.4376 L32.0255,58.2796 Z M16.1625,36.7056 L20.9535,38.3016 C21.0235,39.1226 21.2685,39.9266 21.6905,40.6626 C22.4545,41.9866 23.6865,42.9346 25.1625,43.3316 C25.2355,43.3516 25.3105,43.3666 25.3835,43.3836 C25.3315,43.5306 25.2815,43.6766 25.2405,43.8286 C24.8425,45.3046 25.0435,46.8466 25.8075,48.1716 C26.5765,49.5056 27.8055,50.4096 29.1795,50.8066 L29.1795,58.0246 L29.1515,58.0396 C28.7605,58.2616 28.6235,58.7586 28.8455,59.1486 C28.9265,59.2906 29.0435,59.3966 29.1795,59.4656 L29.1795,73.4376 L16.1625,69.0996 L16.1625,36.7056 Z M23.7415,24.8276 C24.1005,24.1496 24.7025,23.6516 25.4355,23.4256 C26.0865,23.2256 26.7725,23.2616 27.3945,23.5246 C27.5165,23.6006 27.6385,23.6786 27.7695,23.7476 C27.9815,23.8596 28.2085,23.9126 28.4335,23.9126 C28.9435,23.9126 29.4375,23.6366 29.6935,23.1536 C30.0315,22.5146 29.8295,21.7396 29.2535,21.3316 C29.1655,21.2496 29.0685,21.1746 28.9565,21.1156 C28.9025,21.0866 28.8465,21.0646 28.7915,21.0376 C27.6255,20.2186 27.2195,18.6376 27.9025,17.3466 C28.6445,15.9456 30.3865,15.4096 31.7875,16.1496 C31.8915,16.2046 31.9985,16.2416 32.1095,16.2686 C32.1155,16.2716 32.1195,16.2766 32.1255,16.2796 C33.4355,16.9736 33.9895,18.5406 33.4515,19.8876 C33.3465,19.9886 33.2515,20.1026 33.1805,20.2386 C32.8155,20.9356 33.0855,21.7956 33.7825,22.1596 L42.7375,26.8486 L36.8855,30.2196 L31.4385,27.3376 C31.3705,27.3016 31.2985,27.2756 31.2285,27.2516 C31.1695,27.2086 31.1105,27.1646 31.0435,27.1296 C30.3485,26.7616 29.4875,27.0276 29.1205,27.7226 C28.7615,28.4016 28.1595,28.8986 27.4265,29.1246 C26.6915,29.3506 25.9145,29.2766 25.2365,28.9176 C25.2305,28.9146 25.2235,28.9136 25.2165,28.9106 C25.1325,28.8346 25.0425,28.7666 24.9375,28.7126 C23.5375,27.9716 23.0005,26.2286 23.7415,24.8276 L23.7415,24.8276 Z M30.8095,30.2256 L33.9705,31.8986 L31.0255,33.5936 C30.3185,32.8676 29.4315,32.3356 28.4265,32.0656 C28.2465,32.0176 28.0645,31.9786 27.8825,31.9476 C28.0105,31.9176 28.1375,31.8846 28.2645,31.8456 C29.2585,31.5396 30.1265,30.9756 30.8095,30.2256 L30.8095,30.2256 Z M63.4375,16.6196 C63.8205,17.2846 63.9215,18.0586 63.7215,18.7996 C63.5445,19.4576 63.1485,20.0186 62.5975,20.4036 C62.4665,20.4666 62.3355,20.5286 62.2075,20.6026 C61.5275,20.9946 61.2915,21.8656 61.6845,22.5466 C62.0405,23.1656 62.7905,23.4086 63.4335,23.1586 C63.5595,23.1256 63.6845,23.0786 63.8025,23.0106 C63.8555,22.9796 63.9045,22.9436 63.9565,22.9116 C65.2705,22.3616 66.8235,22.8606 67.5535,24.1256 C68.3445,25.4986 67.8705,27.2606 66.4975,28.0506 C66.3945,28.1096 66.3075,28.1826 66.2245,28.2606 C66.2185,28.2636 66.2125,28.2656 66.2065,28.2686 C65.5405,28.6516 64.7665,28.7516 64.0255,28.5526 C63.2845,28.3536 62.6655,27.8776 62.2825,27.2126 C61.9985,26.7186 61.4625,26.4636 60.9295,26.5086 C60.6445,26.4816 60.3495,26.5366 60.0825,26.6916 L34.3645,41.6416 C34.3115,41.6726 34.2665,41.7106 34.2195,41.7466 C34.1835,41.7646 34.1465,41.7746 34.1115,41.7946 C33.4305,42.1866 33.1965,43.0576 33.5885,43.7396 C33.9725,44.4036 34.0725,45.1786 33.8735,45.9186 C33.6735,46.6616 33.1985,47.2796 32.5335,47.6626 C32.5265,47.6666 32.5215,47.6716 32.5155,47.6756 C32.4075,47.7066 32.3005,47.7466 32.1995,47.8056 C30.8255,48.5956 29.0655,48.1216 28.2745,46.7496 C27.8915,46.0846 27.7905,45.3106 27.9905,44.5686 C28.1645,43.9186 28.5525,43.3636 29.0935,42.9776 C29.2315,42.9116 29.3705,42.8426 29.5045,42.7646 C30.1855,42.3726 30.4195,41.5016 30.0275,40.8206 C29.6655,40.1926 28.9015,39.9526 28.2485,40.2226 C28.1325,40.2546 28.0185,40.2946 27.9095,40.3576 C27.8565,40.3886 27.8085,40.4236 27.7565,40.4566 C27.1715,40.7026 26.5255,40.7496 25.9025,40.5816 C25.1615,40.3836 24.5415,39.9066 24.1585,39.2416 C23.7755,38.5776 23.6745,37.8026 23.8745,37.0616 C24.0735,36.3196 24.5495,35.7016 25.2145,35.3176 C25.3165,35.2596 25.4055,35.1876 25.4865,35.1086 C25.4935,35.1056 25.4985,35.1036 25.5055,35.1006 C26.1705,34.7176 26.9445,34.6166 27.6865,34.8156 C28.4275,35.0146 29.0465,35.4906 29.4295,36.1546 L29.4295,36.1566 C29.4905,36.2626 29.5645,36.3566 29.6455,36.4406 C29.6535,36.4466 29.6575,36.4536 29.6645,36.4606 C29.6785,36.4746 29.6945,36.4866 29.7105,36.4996 C29.8815,36.6546 30.0825,36.7656 30.3015,36.8226 C30.3405,36.8326 30.3815,36.8396 30.4225,36.8466 C30.5025,36.8606 30.5835,36.8706 30.6655,36.8706 C30.7245,36.8706 30.7855,36.8656 30.8465,36.8586 C31.0255,36.8346 31.2055,36.7756 31.3735,36.6796 L57.2135,21.7966 C57.2775,21.7606 57.3325,21.7156 57.3885,21.6716 C57.4595,21.6446 57.5305,21.6126 57.6005,21.5736 C58.2815,21.1816 58.5155,20.3106 58.1225,19.6286 C57.7395,18.9636 57.6395,18.1896 57.8385,17.4496 C58.0375,16.7076 58.5135,16.0896 59.1785,15.7056 C59.1855,15.7026 59.1895,15.6976 59.1965,15.6926 C59.3055,15.6626 59.4115,15.6216 59.5135,15.5626 C60.8865,14.7726 62.6465,15.2466 63.4375,16.6196 L63.4375,16.6196 Z M60.5995,29.6856 C61.3195,30.4586 62.2395,31.0206 63.2865,31.3026 C63.4725,31.3526 63.6585,31.3906 63.8465,31.4206 C63.7125,31.4526 63.5795,31.4816 63.4475,31.5216 C62.4145,31.8406 61.5185,32.4346 60.8265,33.2296 L57.5665,31.4486 L60.5995,29.6856 Z M64.3125,39.8426 C64.1915,39.7666 64.0715,39.6896 63.9425,39.6226 C63.2465,39.2536 62.3865,39.5196 62.0195,40.2146 C61.6805,40.8546 61.8835,41.6316 62.4595,42.0376 C62.5475,42.1196 62.6445,42.1946 62.7545,42.2536 C62.8065,42.2806 62.8595,42.2996 62.9115,42.3246 C64.0845,43.1416 64.4935,44.7276 63.8085,46.0226 C63.0675,47.4226 61.3255,47.9606 59.9245,47.2186 C59.8205,47.1636 59.7115,47.1266 59.6025,47.0996 C59.5965,47.0966 59.5915,47.0916 59.5855,47.0886 C58.9075,46.7296 58.4105,46.1276 58.1845,45.3946 C57.9575,44.6616 58.0305,43.8846 58.3895,43.2046 C58.7575,42.5096 58.4925,41.6496 57.7975,41.2806 L48.8205,36.5326 L54.6885,33.1206 L60.3795,36.2296 C60.5965,36.3486 60.8315,36.4056 61.0615,36.4056 C61.1205,36.4056 61.1785,36.4006 61.2365,36.3926 C61.2695,36.3956 61.3005,36.4056 61.3325,36.4056 C61.8435,36.4056 62.3365,36.1286 62.5925,35.6466 C62.9505,34.9676 63.5515,34.4696 64.2865,34.2446 C65.0185,34.0186 65.7975,34.0906 66.4755,34.4506 C66.4815,34.4536 66.4885,34.4546 66.4955,34.4576 C66.5795,34.5326 66.6695,34.6016 66.7735,34.6566 C68.1745,35.3966 68.7115,37.1396 67.9705,38.5406 C67.6115,39.2196 67.0095,39.7166 66.2765,39.9436 C65.6225,40.1446 64.9345,40.1066 64.3125,39.8426 L64.3125,39.8426 Z M79.0255,33.5746 C78.6545,33.3066 78.1765,33.2356 77.7425,33.3796 L70.9305,35.6496 C70.5195,34.1946 69.5435,32.9006 68.1055,32.1396 C68.0995,32.1366 68.0915,32.1346 68.0855,32.1316 C68.0015,32.0566 67.9115,31.9886 67.8075,31.9336 C67.2555,31.6406 66.6695,31.4496 66.0705,31.3496 C66.6095,31.2226 67.1345,31.0196 67.6265,30.7356 C67.7285,30.6776 67.8165,30.6056 67.8975,30.5286 C67.9045,30.5246 67.9115,30.5226 67.9185,30.5176 C70.6515,28.9436 71.5945,25.4386 70.0205,22.7036 C69.1925,21.2676 67.8285,20.3316 66.3265,19.9906 C66.3795,19.8426 66.4295,19.6926 66.4715,19.5396 C66.8695,18.0636 66.6675,16.5226 65.9045,15.1986 C64.3305,12.4646 60.8245,11.5226 58.0915,13.0956 C58.0855,13.0996 58.0805,13.1046 58.0745,13.1086 C57.9655,13.1406 57.8595,13.1806 57.7575,13.2386 C56.4345,14.0006 55.4855,15.2336 55.0885,16.7096 C54.8175,17.7146 54.8325,18.7486 55.1055,19.7246 L45.6595,25.1646 L36.3105,20.2706 C36.9695,17.7596 35.8485,15.0276 33.4565,13.7636 C33.3525,13.7076 33.2435,13.6706 33.1355,13.6436 C33.1285,13.6406 33.1245,13.6366 33.1185,13.6326 C31.7675,12.9186 30.2195,12.7736 28.7595,13.2226 C27.2995,13.6726 26.1005,14.6636 25.3865,16.0146 C24.6115,17.4806 24.5445,19.1336 25.0565,20.5866 C24.9025,20.6206 24.7495,20.6576 24.5965,20.7046 C23.1375,21.1546 21.9385,22.1456 21.2255,23.4966 C19.7495,26.2856 20.8185,29.7536 23.6065,31.2286 C23.6125,31.2316 23.6195,31.2326 23.6245,31.2366 C23.7095,31.3106 23.8005,31.3806 23.9045,31.4346 C24.4575,31.7276 25.0455,31.9156 25.6445,32.0156 C25.1045,32.1416 24.5795,32.3476 24.0845,32.6326 C23.9825,32.6916 23.8945,32.7646 23.8115,32.8416 C23.8075,32.8466 23.8005,32.8466 23.7935,32.8496 C22.7375,33.4586 21.9265,34.3706 21.4365,35.4616 L15.1895,33.3796 C14.7555,33.2356 14.2775,33.3066 13.9055,33.5746 C13.5355,33.8426 13.3145,34.2716 13.3145,34.7296 L13.3145,70.1256 C13.3145,70.7386 13.7065,71.2826 14.2895,71.4756 L30.1515,76.7646 C30.1555,76.7646 30.1575,76.7656 30.1595,76.7666 C30.2135,76.7836 30.2675,76.7946 30.3215,76.8056 C30.3405,76.8096 30.3595,76.8166 30.3785,76.8196 C30.4525,76.8306 30.5275,76.8376 30.6025,76.8376 C30.6775,76.8376 30.7525,76.8306 30.8265,76.8196 C30.8445,76.8166 30.8625,76.8096 30.8805,76.8056 C30.9365,76.7946 30.9915,76.7836 31.0455,76.7666 C31.0485,76.7656 31.0505,76.7646 31.0525,76.7646 L46.4665,71.6256 L61.8795,76.7646 C61.8815,76.7646 61.8845,76.7656 61.8875,76.7666 C61.9395,76.7836 61.9935,76.7946 62.0485,76.8056 C62.0675,76.8096 62.0855,76.8166 62.1055,76.8196 C62.1795,76.8306 62.2545,76.8376 62.3295,76.8376 C62.4045,76.8376 62.4795,76.8306 62.5535,76.8196 C62.5715,76.8166 62.5895,76.8096 62.6075,76.8056 C62.6635,76.7946 62.7185,76.7836 62.7735,76.7666 C62.7745,76.7656 62.7765,76.7646 62.7805,76.7646 L78.6435,71.4756 C79.2255,71.2826 79.6175,70.7386 79.6175,70.1256 L79.6175,34.7296 C79.6175,34.2716 79.3965,33.8426 79.0255,33.5746 L79.0255,33.5746 Z" id="Fill-3" fill="#000000"></path>
            <path d="M68.5352,60.8032 C68.3362,61.2062 68.5022,61.6942 68.9052,61.8932 L71.6252,63.2322 C71.7422,63.2892 71.8642,63.3162 71.9842,63.3162 C72.2852,63.3162 72.5742,63.1492 72.7152,62.8612 C72.9132,62.4592 72.7472,61.9712 72.3442,61.7722 L69.6242,60.4332 C69.2202,60.2332 68.7322,60.4012 68.5352,60.8032" id="Fill-5" fill="#000000"></path>
            <path d="M54.2632,54.251 L51.6682,56.215 C51.3102,56.487 51.2402,56.997 51.5122,57.355 C51.6722,57.566 51.9142,57.677 52.1602,57.677 C52.3322,57.677 52.5042,57.624 52.6512,57.513 L55.2452,55.548 C55.6042,55.277 55.6752,54.767 55.4032,54.409 C55.1322,54.05 54.6222,53.98 54.2632,54.251" id="Fill-7" fill="#000000"></path>
            <path d="M26.3218,59.6465 L23.4918,61.2525 C23.1008,61.4745 22.9648,61.9715 23.1858,62.3615 C23.3358,62.6255 23.6108,62.7735 23.8938,62.7735 C24.0298,62.7735 24.1678,62.7395 24.2948,62.6675 L27.1248,61.0615 C27.5158,60.8395 27.6528,60.3425 27.4308,59.9525 C27.2088,59.5625 26.7128,59.4245 26.3218,59.6465" id="Fill-9" fill="#000000"></path>
            <path d="M38.3921,54.8066 L37.9991,54.0086 C37.9001,53.8066 37.7231,53.6566 37.5091,53.5896 C37.2931,53.5226 37.0611,53.5486 36.8681,53.6606 L34.8111,54.8276 C34.4211,55.0486 34.2851,55.5456 34.5061,55.9356 C34.6551,56.1996 34.9301,56.3486 35.2141,56.3486 C35.3501,56.3486 35.4881,56.3136 35.6151,56.2416 L36.9211,55.5006 L36.9321,55.5246 C37.1311,55.9276 37.6171,56.0946 38.0211,55.8956 C38.4251,55.6976 38.5901,55.2096 38.3921,54.8066" id="Fill-11" fill="#000000"></path>
            <path d="M41.2646,60.646 L39.8276,57.727 C39.6296,57.324 39.1426,57.157 38.7396,57.355 C38.3356,57.554 38.1706,58.041 38.3686,58.445 L39.8046,61.365 C39.9466,61.651 40.2356,61.819 40.5356,61.819 C40.6556,61.819 40.7776,61.793 40.8936,61.735 C41.2966,61.537 41.4626,61.049 41.2646,60.646" id="Fill-13" fill="#000000"></path>
        </g>
    </g>
</svg>