<?xml version="1.0" encoding="UTF-8" standalone="no"?>
<svg width="92px" height="92px" viewBox="0 0 92 92" version="1.1" xmlns="http://www.w3.org/2000/svg" xmlns:xlink="http://www.w3.org/1999/xlink">
    <!-- Generator: Sketch 3.6.1 (26313) - http://www.bohemiancoding.com/sketch -->
    <title>Page 1</title>
    <desc>Created with Sketch.</desc>
    <defs></defs>
    <g id="Page-1" stroke="none" stroke-width="1" fill="none" fill-rule="evenodd">
        <g>
            <path d="M92,46 C92,71.405 71.406,92 46,92 C20.594,92 0,71.405 0,46 C0,20.595 20.594,0 46,0 C71.406,0 92,20.595 92,46" id="Fill-1" fill="#FBF289"></path>
            <g id="Group-11" transform="translate(18.000000, 7.000000)" fill="#000000">
                <path d="M28,69.1128 C18.592,69.1128 10.938,56.8688 10.938,41.8198 C10.938,26.7698 18.592,14.5268 28,14.5268 C37.408,14.5268 45.062,26.7698 45.062,41.8198 C45.062,56.8688 37.408,69.1128 28,69.1128 M28,11.3468 C16.839,11.3468 7.759,25.0168 7.759,41.8198 C7.759,58.6218 16.839,72.2918 28,72.2918 C39.161,72.2918 48.241,58.6218 48.241,41.8198 C48.241,25.0168 39.161,11.3468 28,11.3468" id="Fill-3"></path>
                <path d="M4.1099,41.5454 C4.1099,22.6224 14.8269,7.2274 27.9999,7.2274 C41.1729,7.2274 51.8899,22.6224 51.8899,41.5454 C51.8899,60.4684 41.1729,75.8634 27.9999,75.8634 C14.8269,75.8634 4.1099,60.4684 4.1099,41.5454 L4.1099,41.5454 Z M41.5739,73.9664 C49.6349,67.4654 55.0689,55.3714 55.0689,41.5454 C55.0689,21.6034 43.7719,5.2524 29.5769,4.1164 C29.5799,4.0774 29.5889,4.0394 29.5889,3.9994 L29.5889,2.0694 C29.5889,1.1914 28.8779,0.4794 27.9999,0.4794 C27.1219,0.4794 26.4109,1.1914 26.4109,2.0694 L26.4109,3.9994 C26.4109,4.0394 26.4199,4.0774 26.4219,4.1174 C12.2279,5.2534 0.9309,21.6034 0.9309,41.5454 C0.9309,55.3714 6.3649,67.4644 14.4259,73.9664 L9.2259,81.8454 C8.7419,82.5784 8.9439,83.5644 9.6769,84.0474 C9.9459,84.2254 10.2509,84.3104 10.5509,84.3104 C11.0669,84.3104 11.5729,84.0594 11.8789,83.5964 L17.0199,75.8064 C20.3789,77.8804 24.0919,79.0434 27.9999,79.0434 C31.9089,79.0434 35.6219,77.8804 38.9799,75.8074 L44.1209,83.5964 C44.4269,84.0594 44.9329,84.3104 45.4489,84.3104 C45.7489,84.3104 46.0539,84.2254 46.3229,84.0474 C47.0559,83.5644 47.2569,82.5784 46.7739,81.8454 L41.5739,73.9664 Z" id="Fill-5"></path>
                <path d="M28.2417,25.3569 C27.5657,24.7969 26.5637,24.8889 26.0037,25.5659 L16.1087,37.4919 C15.5477,38.1679 15.6407,39.1699 16.3167,39.7299 C16.6127,39.9759 16.9727,40.0959 17.3307,40.0959 C17.7867,40.0959 18.2407,39.9009 18.5537,39.5219 L28.4497,27.5949 C29.0107,26.9199 28.9177,25.9179 28.2417,25.3569" id="Fill-7"></path>
                <path d="M26.0034,36.8101 L19.0564,45.1831 C18.4964,45.8591 18.5884,46.8601 19.2654,47.4211 C19.5624,47.6671 19.9224,47.7871 20.2784,47.7871 C20.7354,47.7871 21.1894,47.5921 21.5034,47.2131 L28.4504,38.8401 C29.0104,38.1641 28.9174,37.1631 28.2424,36.6021 C27.5654,36.0421 26.5634,36.1351 26.0034,36.8101" id="Fill-9"></path>
            </g>
        </g>
    </g>
</svg>