<?xml version="1.0" encoding="utf-8"?>
<!-- Generated by IcoMoon.io -->
<!DOCTYPE svg PUBLIC "-//W3C//DTD SVG 1.1//EN" "http://www.w3.org/Graphics/SVG/1.1/DTD/svg11.dtd">
<svg version="1.1" xmlns="http://www.w3.org/2000/svg" xmlns:xlink="http://www.w3.org/1999/xlink" width="32" height="32" viewBox="0 0 32 32">
<path d="M21.75 17.671c-1.065 0-2.008-0.719-2.292-1.747l-1.725-6.247 4.587-1.267 1.726 6.246c0.169 0.613 0.090 1.255-0.224 1.808s-0.824 0.95-1.436 1.119c-0.209 0.058-0.422 0.087-0.636 0.087v0zM13.308 15.925c-0.34 1.235-1.677 2.004-2.927 1.66-0.612-0.169-1.123-0.566-1.436-1.119s-0.393-1.195-0.224-1.808l1.726-6.246 4.587 1.267-1.725 6.247zM26.96 23.434l-1.892 0.523-1.379-4.993c0.698-0.366 1.282-0.92 1.679-1.622 0.548-0.965 0.687-2.087 0.391-3.157l-2.198-7.96-7.178 1.982-7.178-1.982-2.198 7.96c-0.296 1.070-0.157 2.192 0.391 3.157 0.397 0.702 0.981 1.256 1.679 1.622l-1.38 4.993-1.892-0.523-0.473 1.714 5.497 1.519 0.474-1.714-1.892-0.523 1.38-4.996c0.075 0.004 0.149 0.015 0.224 0.015 1.862 0 3.509-1.255 4.005-3.052l1.362-4.932 1.362 4.932c0.496 1.796 2.143 3.052 4.005 3.052v0c0.075 0 0.149-0.012 0.224-0.015l1.38 4.996-1.892 0.523 0.473 1.714 5.498-1.519-0.473-1.714z"></path>
</svg>
