<?xml version="1.0" standalone="no"?>
<!DOCTYPE svg PUBLIC "-//W3C//DTD SVG 20010904//EN"
 "http://www.w3.org/TR/2001/REC-SVG-20010904/DTD/svg10.dtd">
<svg version="1.0" xmlns="http://www.w3.org/2000/svg"
 width="200.000000pt" height="200.000000pt" viewBox="0 0 200.000000 200.000000"
 preserveAspectRatio="xMidYMid meet">
<metadata>
Created by potrace 1.11, written by Peter Selinger 2001-2013
</metadata>
<g transform="translate(0.000000,200.000000) scale(0.100000,-0.100000)"
fill="#000000" stroke="none">
<path d="M805 1311 c-23 -10 -49 -30 -58 -44 -24 -37 -22 -108 3 -140 l20 -26
-50 -50 c-27 -27 -51 -59 -51 -71 -5 -71 0 -88 31 -124 56 -63 166 -79 256
-36 l45 22 28 -32 28 -33 39 36 39 36 -38 36 -37 35 20 42 c11 23 20 43 20 44
0 1 -19 16 -42 33 l-41 31 -16 -37 -16 -36 -28 36 -27 36 50 50 c40 40 50 57
50 83 0 48 -20 80 -65 105 -49 28 -106 29 -160 4z m103 -83 c18 -18 15 -43 -8
-63 -24 -22 -47 -14 -56 20 -11 43 34 73 64 43z m-29 -259 c41 -48 42 -51 25
-64 -32 -24 -90 -19 -113 11 -11 14 -17 33 -14 42 7 19 43 62 52 62 3 0 26
-23 50 -51z"/>
<path d="M118 1317 c0 -1 -2 -118 -3 -260 l-2 -259 157 4 c148 3 159 4 193 28
65 44 80 127 36 191 -10 15 -31 30 -45 33 l-26 7 27 27 c36 35 46 65 39 109
-15 93 -59 115 -241 119 -73 1 -134 2 -135 1z m248 -122 c34 -46 -3 -85 -81
-85 l-55 0 0 56 0 56 61 -4 c45 -3 65 -10 75 -23z m27 -206 c19 -24 15 -56
-11 -76 -9 -8 -45 -13 -84 -13 l-68 0 0 60 0 60 73 -5 c59 -3 75 -8 90 -26z"/>
<path d="M1293 1058 l0 -258 59 0 58 0 0 161 0 161 69 -139 c67 -136 69 -139
102 -141 l34 -2 65 131 c36 72 68 132 71 134 3 2 5 -60 4 -138 0 -78 1 -148 3
-154 3 -8 24 -13 58 -13 36 0 54 4 55 13 0 16 0 466 0 489 -1 15 -11 17 -77
15 -88 -2 -75 11 -158 -167 l-53 -115 -43 90 c-23 50 -53 113 -66 142 l-23 52
-79 -1 -79 -2 0 -258z"/>
</g>
</svg>
