<?xml version="1.0" encoding="UTF-8" standalone="no"?>
<svg width="36px" height="36px" viewBox="0 0 36 36" version="1.1" xmlns="http://www.w3.org/2000/svg" xmlns:xlink="http://www.w3.org/1999/xlink" xmlns:sketch="http://www.bohemiancoding.com/sketch/ns">
    <!-- Generator: Sketch 3.5.2 (25235) - http://www.bohemiancoding.com/sketch -->
    <title>drinks</title>
    <desc>Created with Sketch.</desc>
    <defs>
        <path id="path-1" d="M0,0.002 L24.862,0.002 L24.862,23 L0,23 L0,0.002 Z"></path>
    </defs>
    <g id="Page-2" stroke="none" stroke-width="1" fill="none" fill-rule="evenodd" sketch:type="MSPage">
        <g id="drinks" sketch:type="MSArtboardGroup">
            <g id="drinks-copy" sketch:type="MSLayerGroup" transform="translate(6.000000, 7.000000)">
                <g id="Page-1">
                    <mask id="mask-2" sketch:name="Clip 2" fill="white">
                        <use xlink:href="#path-1"></use>
                    </mask>
                    <g id="Clip-2"></g>
                    <path d="M18.4692,12.8804 C17.2712,12.8804 16.2102,12.0714 15.8912,10.9154 L13.9502,3.8874 L19.1102,2.4624 L21.0522,9.4894 C21.2422,10.1794 21.1532,10.9014 20.8002,11.5234 C20.4472,12.1454 19.8732,12.5924 19.1842,12.7824 C18.9492,12.8474 18.7092,12.8804 18.4692,12.8804 L18.4692,12.8804 Z M8.9712,10.9154 C8.5882,12.3044 7.0842,13.1704 5.6782,12.7824 C4.9892,12.5924 4.4152,12.1454 4.0622,11.5234 C3.7092,10.9014 3.6202,10.1794 3.8102,9.4894 L5.7522,2.4624 L10.9122,3.8874 L8.9712,10.9154 Z M24.3302,19.3634 L22.2012,19.9514 L20.6502,14.3344 C21.4352,13.9224 22.0922,13.2994 22.5392,12.5094 C23.1562,11.4234 23.3122,10.1614 22.9792,8.9574 L20.5062,0.0024 L12.4312,2.2324 L4.3562,0.0024 L1.8832,8.9574 C1.5502,10.1614 1.7062,11.4234 2.3232,12.5094 C2.7702,13.2994 3.4272,13.9224 4.2122,14.3344 L2.6602,19.9514 L0.5322,19.3634 L0.0002,21.2914 L6.1842,23.0004 L6.7172,21.0724 L4.5882,20.4844 L6.1412,14.8634 C6.2252,14.8674 6.3092,14.8804 6.3932,14.8804 C8.4882,14.8804 10.3412,13.4684 10.8992,11.4474 L12.4312,5.8994 L13.9632,11.4474 C14.5212,13.4684 16.3742,14.8804 18.4692,14.8804 L18.4692,14.8804 C18.5532,14.8804 18.6372,14.8674 18.7212,14.8634 L20.2742,20.4844 L18.1452,21.0724 L18.6772,23.0004 L24.8622,21.2914 L24.3302,19.3634 Z" id="Fill-1" fill="#2F2E2F" sketch:type="MSShapeGroup" mask="url(#mask-2)"></path>
                </g>
            </g>
        </g>
    </g>
</svg>