<?xml version="1.0" encoding="UTF-8" standalone="no"?>
<svg width="92px" height="92px" viewBox="0 0 92 92" version="1.1" xmlns="http://www.w3.org/2000/svg" xmlns:xlink="http://www.w3.org/1999/xlink">
    <!-- Generator: Sketch 3.6.1 (26313) - http://www.bohemiancoding.com/sketch -->
    <title>Page 1</title>
    <desc>Created with Sketch.</desc>
    <defs>
        <path id="path-1" d="M0.1509,75.1899391 C7.31704346,79.7985608 15.8460688,82.472 25,82.472 C34.153846,82.472 42.6827978,79.7986106 49.8489,75.1900677 L49.8489,0.0835 L0.1509,0.0835 L0.1509,75.1899391 L0.1509,75.1899391 Z"></path>
    </defs>
    <g id="Page-1" stroke="none" stroke-width="1" fill="none" fill-rule="evenodd">
        <g>
            <path d="M92,46.0002 C92,71.4052 71.406,92.0002 46,92.0002 C20.594,92.0002 0,71.4052 0,46.0002 C0,20.5952 20.594,0.0002 46,0.0002 C71.406,0.0002 92,20.5952 92,46.0002" id="Fill-1" fill="#ABE0FC"></path>
            <g id="Group-9" transform="translate(21.000000, 9.528000)">
                <mask id="mask-2" fill="white">
                    <use xlink:href="#path-1"></use>
                </mask>
                <g id="Clip-4"></g>
                <path d="M15.406,56.922 L18.286,56.922 L18.286,50.166 L15.406,50.166 L15.406,56.922 Z M19.657,47.425 L14.036,47.425 C13.279,47.425 12.665,48.039 12.665,48.795 L12.665,58.292 C12.665,59.049 13.279,59.663 14.036,59.663 L19.657,59.663 C20.414,59.663 21.028,59.049 21.028,58.292 L21.028,48.795 C21.028,48.039 20.414,47.425 19.657,47.425 L19.657,47.425 Z" id="Fill-3" fill="#000000" mask="url(#mask-2)"></path>
                <path d="M30.937,56.922 L33.817,56.922 L33.817,50.166 L30.937,50.166 L30.937,56.922 Z M35.188,47.425 L29.566,47.425 C28.81,47.425 28.196,48.039 28.196,48.795 L28.196,58.292 C28.196,59.049 28.81,59.663 29.566,59.663 L35.188,59.663 C35.945,59.663 36.559,59.049 36.559,58.292 L36.559,48.795 C36.559,48.039 35.945,47.425 35.188,47.425 L35.188,47.425 Z" id="Fill-5" fill="#000000" mask="url(#mask-2)"></path>
                <path d="M15.406,82.247 L18.286,82.247 L18.286,75.491 L15.406,75.491 L15.406,82.247 Z M14.036,84.988 L19.657,84.988 C20.414,84.988 21.028,84.375 21.028,83.618 L21.028,74.121 C21.028,73.364 20.414,72.75 19.657,72.75 L14.036,72.75 C13.279,72.75 12.665,73.364 12.665,74.121 L12.665,83.618 C12.665,84.375 13.279,84.988 14.036,84.988 L14.036,84.988 Z" id="Fill-6" fill="#000000" mask="url(#mask-2)"></path>
                <path d="M30.938,82.247 L33.818,82.247 L33.818,75.491 L30.938,75.491 L30.938,82.247 Z M29.566,84.988 L35.188,84.988 C35.945,84.988 36.559,84.375 36.559,83.618 L36.559,74.121 C36.559,73.364 35.945,72.75 35.188,72.75 L29.566,72.75 C28.81,72.75 28.196,73.364 28.196,74.121 L28.196,83.618 C28.196,84.375 28.81,84.988 29.566,84.988 L29.566,84.988 Z" id="Fill-7" fill="#000000" mask="url(#mask-2)"></path>
                <path d="M47.1079,33.1035 L45.2889,33.1035 L39.2929,33.1035 L39.2799,33.1035 L4.7109,33.1035 L2.8919,33.1035 L2.8919,32.3345 L47.1079,32.3345 L47.1079,33.1035 Z M43.9189,56.1135 L6.0819,72.4815 L6.0819,50.1555 C6.2289,50.1455 6.3759,50.1165 6.5189,50.0545 L39.5769,35.8445 L43.9189,35.8445 L43.9189,56.1135 Z M21.1709,120.1265 L43.9189,110.5975 L43.9189,120.1265 L21.1709,120.1265 Z M30.9369,108.4355 L33.8169,108.4355 L33.8169,101.6795 L30.9369,101.6795 L30.9369,108.4355 Z M6.0819,100.6815 C6.2529,100.6775 6.4269,100.6445 6.5929,100.5715 L43.9189,84.4255 L43.9189,107.6255 L35.8049,111.0235 C36.2509,110.7975 36.5589,110.3395 36.5589,109.8075 L36.5589,100.3095 C36.5589,99.5525 35.9449,98.9385 35.1879,98.9385 L29.5659,98.9385 C28.8099,98.9385 28.1959,99.5525 28.1959,100.3095 L28.1959,109.8075 C28.1959,110.5635 28.8099,111.1775 29.5659,111.1775 L35.1879,111.1775 C35.3409,111.1775 35.4869,111.1455 35.6259,111.0995 L14.0759,120.1265 L6.0819,120.1265 L6.0819,100.6815 Z M6.0819,35.8445 L32.6359,35.8445 L6.0819,47.2595 L6.0819,35.8445 Z M43.9189,81.4385 L6.0819,97.8065 L6.0819,75.3565 C6.2529,75.3525 6.4269,75.3185 6.5929,75.2465 L43.9189,59.1005 L43.9189,81.4385 Z M13.8389,27.4625 L13.8389,29.5935 L11.4279,29.5935 L13.8389,27.4625 Z M16.5799,19.5165 L19.5369,19.5165 L30.4629,19.5165 L33.4199,19.5165 L33.4199,29.3665 L29.1809,29.3665 L29.1809,21.8585 C29.1809,21.1015 28.5669,20.4885 27.8109,20.4885 L22.1889,20.4885 C21.4319,20.4885 20.8179,21.1015 20.8179,21.8585 L20.8179,29.3665 L16.5799,29.3665 L16.5799,19.5165 Z M20.9069,13.7615 L23.1489,13.7615 L26.8519,13.7615 L29.0919,13.7615 L29.0919,16.7755 L20.9069,16.7755 L20.9069,13.7615 Z M24.5199,11.0205 L25.4809,11.0205 L25.4809,2.8255 L24.5199,2.8255 L24.5199,11.0205 Z M23.5599,29.3665 L26.4409,29.3665 L26.4409,23.2295 L23.5599,23.2295 L23.5599,29.3665 Z M39.1439,29.5935 L36.1609,29.5935 L36.1609,27.2925 L39.1439,29.5935 Z M48.4789,29.5935 L43.6319,29.5935 L36.1609,23.8315 L36.1609,18.1465 C36.1609,17.3895 35.5469,16.7755 34.7909,16.7755 L31.8339,16.7755 L31.8339,12.3905 C31.8339,11.6335 31.2199,11.0205 30.4629,11.0205 L28.2219,11.0205 L28.2219,1.4545 C28.2219,0.6975 27.6079,0.0835 26.8519,0.0835 L23.1489,0.0835 C22.3919,0.0835 21.7779,0.6975 21.7779,1.4545 L21.7779,11.0205 L19.5369,11.0205 C18.7799,11.0205 18.1659,11.6335 18.1659,12.3905 L18.1659,16.7755 L15.2099,16.7755 C14.4529,16.7755 13.8389,17.3895 13.8389,18.1465 L13.8389,23.8045 L7.2879,29.5935 L1.5219,29.5935 C0.7649,29.5935 0.1509,30.2075 0.1509,30.9645 L0.1509,34.4745 C0.1509,35.2315 0.7649,35.8445 1.5219,35.8445 L3.3399,35.8445 L3.3399,121.4975 C3.3399,122.2535 3.9539,122.8675 4.7109,122.8675 L13.4499,122.8675 C13.6319,122.9535 13.8319,122.9995 14.0359,122.9995 C14.2129,122.9995 14.3919,122.9655 14.5649,122.8935 L14.6269,122.8675 L45.2889,122.8675 C46.0459,122.8675 46.6589,122.2535 46.6589,121.4975 L46.6589,35.8445 L48.4789,35.8445 C49.2349,35.8445 49.8489,35.2315 49.8489,34.4745 L49.8489,30.9645 C49.8489,30.2075 49.2349,29.5935 48.4789,29.5935 L48.4789,29.5935 Z" id="Fill-8" fill="#000000" mask="url(#mask-2)"></path>
            </g>
        </g>
    </g>
</svg>