<?xml version="1.0" encoding="utf-8"?>
<!-- Generator: Adobe Illustrator 16.0.0, SVG Export Plug-In . SVG Version: 6.00 Build 0)  -->
<!DOCTYPE svg PUBLIC "-//W3C//DTD SVG 1.1//EN" "http://www.w3.org/Graphics/SVG/1.1/DTD/svg11.dtd">
<svg version="1.1" id="Layer_1" xmlns="http://www.w3.org/2000/svg" xmlns:xlink="http://www.w3.org/1999/xlink" x="0px" y="0px"
	 width="92px" height="92px" viewBox="0 0 92 92" enable-background="new 0 0 92 92" xml:space="preserve">
<title>Page 1</title>
<desc>Created with Sketch.</desc>
<g id="Page-1">
	<g>
		<path id="Fill-1" fill="#ABE0FC" d="M92,46c0,25.405-20.594,46-46,46C20.594,92,0,71.405,0,46S20.594,0,46,0
			C71.406,0,92,20.595,92,46"/>
	</g>
</g>
<path d="M76.718,35.323H25.109l50.012-9.639c0.096-0.019,0.185-0.046,0.27-0.083l0.455-0.088c0.722-0.139,1.193-0.837,1.055-1.558
	l-1.816-9.429c-0.067-0.346-0.269-0.652-0.562-0.85c-0.291-0.197-0.65-0.273-0.997-0.205L15.031,24.745
	c-0.722,0.139-1.194,0.836-1.055,1.558l1.817,9.429c0.025,0.134,0.078,0.26,0.141,0.378c-0.074,0.167-0.118,0.35-0.118,0.544v37.739
	c0,0.735,0.596,1.332,1.331,1.332h59.57c0.735,0,1.331-0.597,1.331-1.332V36.653C78.049,35.918,77.453,35.323,76.718,35.323z
	 M74.035,23.152l-5.659,1.09l4.542-6.888L74.035,23.152z M59.854,25.885l-9.044,1.743l5.34-8.097l9.043-1.744L59.854,25.885z
	 M43.253,29.084l-9.044,1.744l5.338-8.097l9.044-1.744L43.253,29.084z M24.301,32.736l-6.147,1.185l-0.572-2.969l3.014-4.57
	l9.044-1.742L24.301,32.736z M18.478,41.901l3.824-3.917h9.211l-6.805,6.971h-6.23V41.901z M41.602,37.985h9.21l-6.804,6.971h-9.21
	L41.602,37.985z M58.509,37.985h9.21l-6.805,6.971h-9.21L58.509,37.985z M75.388,39.021v5.935h-5.793L75.388,39.021z M18.478,73.062
	V47.617h56.91v25.445H18.478z"/>
</svg>
