<?xml version="1.0" encoding="UTF-8" standalone="no"?>
<svg width="92px" height="92px" viewBox="0 0 92 92" version="1.1" xmlns="http://www.w3.org/2000/svg" xmlns:xlink="http://www.w3.org/1999/xlink">
    <!-- Generator: Sketch 3.6.1 (26313) - http://www.bohemiancoding.com/sketch -->
    <title>Page 1</title>
    <desc>Created with Sketch.</desc>
    <defs></defs>
    <g id="Page-1" stroke="none" stroke-width="1" fill="none" fill-rule="evenodd">
        <g>
            <path d="M92,46 C92,71.405 71.406,92 46,92 C20.594,92 0,71.405 0,46 C0,20.595 20.594,0 46,0 C71.406,0 92,20.595 92,46" id="Fill-1" fill="#F19191"></path>
            <path d="M62.1162,41.3413 C48.4942,35.9763 48.7822,25.6953 48.8022,25.2603 C48.8032,25.2373 48.8032,25.2153 48.8032,25.1913 C48.8032,21.8243 51.5422,19.0853 54.9092,19.0853 C57.6092,19.0853 60.0202,20.8923 60.7742,23.4803 C60.9472,24.0743 61.5092,24.4493 62.1012,24.4143 L62.1072,24.4143 C62.1162,24.4133 62.1252,24.4143 62.1352,24.4133 C62.7252,24.4453 63.2852,24.0733 63.4582,23.4803 C64.2122,20.8923 66.6232,19.0853 69.3232,19.0853 C72.6892,19.0853 75.4292,21.8243 75.4292,25.1913 L75.4292,25.2373 C75.4432,25.6773 75.5962,35.9523 62.1162,41.3413 M38.6822,74.0493 C25.1662,74.0493 14.1702,63.0533 14.1702,49.5363 C14.1702,36.0193 25.1662,25.0233 38.6822,25.0233 C41.2602,25.0233 43.7952,25.4243 46.2222,26.2083 C46.4452,29.4263 48.2622,38.9033 61.6272,43.9523 C61.6292,43.9523 61.6302,43.9543 61.6322,43.9543 L61.6502,43.9613 C61.6532,43.9623 61.6552,43.9633 61.6582,43.9643 C61.6582,43.9643 61.6592,43.9643 61.6592,43.9653 L61.6712,43.9683 C61.7132,43.9843 61.7562,43.9923 61.7992,44.0033 C61.8292,44.0103 61.8602,44.0223 61.8902,44.0283 C61.9102,44.0303 61.9292,44.0303 61.9492,44.0333 C62.0052,44.0403 62.0612,44.0483 62.1162,44.0483 C62.1912,44.0483 62.2632,44.0393 62.3362,44.0283 C62.3572,44.0243 62.3782,44.0183 62.3982,44.0133 C62.4492,44.0023 62.4992,43.9883 62.5472,43.9713 C62.5522,43.9703 62.5552,43.9693 62.5592,43.9683 C62.9812,45.7843 63.1962,47.6533 63.1962,49.5363 C63.1962,63.0533 52.1992,74.0493 38.6822,74.0493 M78.0342,25.1693 C78.0222,20.3763 74.1182,16.4793 69.3232,16.4793 C66.3962,16.4793 63.7102,17.9713 62.1162,20.3073 C60.5222,17.9713 57.8362,16.4793 54.9092,16.4793 C50.6772,16.4793 47.1412,19.5143 46.3602,23.5223 C43.8762,22.7903 41.2992,22.4173 38.6822,22.4173 C23.7292,22.4173 11.5642,34.5833 11.5642,49.5363 C11.5642,64.4893 23.7292,76.6553 38.6822,76.6553 C53.6362,76.6553 65.8012,64.4893 65.8012,49.5363 C65.8012,47.3013 65.5262,45.0843 64.9882,42.9363 C78.1192,36.7383 78.0572,25.9553 78.0342,25.1693" id="Fill-3" fill="#000000"></path>
            <path d="M45.5278,50.6328 L39.9858,50.6328 L39.9858,39.0828 C39.9858,38.3628 39.4018,37.7788 38.6828,37.7788 C37.9628,37.7788 37.3798,38.3628 37.3798,39.0828 L37.3798,51.9358 C37.3798,52.6548 37.9628,53.2388 38.6828,53.2388 L45.5278,53.2388 C46.2478,53.2388 46.8308,52.6548 46.8308,51.9358 C46.8308,51.2158 46.2478,50.6328 45.5278,50.6328" id="Fill-5" fill="#000000"></path>
            <path d="M23.1289,48.2334 L20.5149,48.2334 C19.7959,48.2334 19.2119,48.8164 19.2119,49.5354 C19.2119,50.2554 19.7959,50.8384 20.5149,50.8384 L23.1289,50.8384 C23.8479,50.8384 24.4309,50.2554 24.4309,49.5354 C24.4309,48.8164 23.8479,48.2334 23.1289,48.2334" id="Fill-7" fill="#000000"></path>
            <path d="M57.5503,48.2334 L54.9353,48.2334 C54.2163,48.2334 53.6333,48.8164 53.6333,49.5354 C53.6333,50.2554 54.2163,50.8384 54.9353,50.8384 L57.5503,50.8384 C58.2693,50.8384 58.8533,50.2554 58.8533,49.5354 C58.8533,48.8164 58.2693,48.2334 57.5503,48.2334" id="Fill-9" fill="#000000"></path>
            <path d="M39.0322,64.1367 C38.3132,64.1367 37.7292,64.7197 37.7292,65.4397 L37.7292,68.0537 C37.7292,68.7727 38.3132,69.3567 39.0322,69.3567 C39.7522,69.3567 40.3352,68.7727 40.3352,68.0537 L40.3352,65.4397 C40.3352,64.7197 39.7522,64.1367 39.0322,64.1367" id="Fill-11" fill="#000000"></path>
            <path d="M39.0322,34.9351 C39.7522,34.9351 40.3352,34.3521 40.3352,33.6331 L40.3352,31.0181 C40.3352,30.2991 39.7522,29.7161 39.0322,29.7161 C38.3132,29.7161 37.7292,30.2991 37.7292,31.0181 L37.7292,33.6331 C37.7292,34.3521 38.3132,34.9351 39.0322,34.9351" id="Fill-13" fill="#000000"></path>
        </g>
    </g>
</svg>