<?xml version="1.0" encoding="UTF-8" standalone="no"?>
<svg width="92px" height="92px" viewBox="0 0 92 92" version="1.1" xmlns="http://www.w3.org/2000/svg" xmlns:xlink="http://www.w3.org/1999/xlink">
    <!-- Generator: Sketch 3.6.1 (26313) - http://www.bohemiancoding.com/sketch -->
    <title>Page 1</title>
    <desc>Created with Sketch.</desc>
    <defs></defs>
    <g id="Page-1" stroke="none" stroke-width="1" fill="none" fill-rule="evenodd">
        <g>
            <path d="M92,46 C92,71.405 71.406,92 46,92 C20.594,92 0,71.405 0,46 C0,20.595 20.594,0 46,0 C71.406,0 92,20.595 92,46" id="Fill-1" fill="#FBF289"></path>
            <path d="M47.5078,28.3018 C47.9338,28.3018 48.2808,27.9548 48.2808,27.5278 C48.2808,27.1008 47.9338,26.7538 47.5078,26.7538 C47.0798,26.7538 46.7328,27.1008 46.7328,27.5278 C46.7328,27.9548 47.0798,28.3018 47.5078,28.3018" id="Fill-3" fill="#000000"></path>
            <path d="M44.4199,25.2109 C44.8479,25.2109 45.1949,24.8639 45.1949,24.4369 C45.1949,24.0099 44.8479,23.6629 44.4199,23.6629 C43.9919,23.6629 43.6469,24.0099 43.6469,24.4369 C43.6469,24.8639 43.9919,25.2109 44.4199,25.2109" id="Fill-5" fill="#000000"></path>
            <path d="M43.0762,30.1738 C43.5022,30.1738 43.8492,29.8268 43.8492,29.3998 C43.8492,28.9728 43.5022,28.6268 43.0762,28.6268 C42.6482,28.6268 42.3032,28.9728 42.3032,29.3998 C42.3032,29.8268 42.6482,30.1738 43.0762,30.1738" id="Fill-7" fill="#000000"></path>
            <path d="M46,71.3633 C28.195,71.3633 15.787,66.4133 15.787,61.9713 L15.787,58.2483 C19.412,61.4273 26.672,63.8403 36.289,64.8743 C36.855,66.6653 38.531,67.9673 40.508,67.9673 C42.297,67.9673 43.836,66.8973 44.533,65.3663 C45.023,65.3743 45.514,65.3843 46,65.3843 C54.551,65.3843 62.605,64.2503 68.686,62.1893 C72.301,60.9643 74.678,59.6123 76.211,58.2753 L76.211,61.9713 C76.211,66.4133 63.803,71.3633 46,71.3633 L46,71.3633 Z M46,20.6353 C47.654,20.6353 49.775,22.7793 50.842,25.5053 C50.861,25.7173 50.936,25.9153 51.049,26.0863 C51.344,26.9923 51.518,27.9473 51.518,28.9003 C51.518,32.3953 50.615,34.4193 46,34.4193 C41.438,34.4193 40.48,31.4173 40.48,28.9003 C40.48,27.9473 40.656,26.9923 40.949,26.0863 C41.064,25.9153 41.137,25.7183 41.156,25.5063 C42.223,22.7803 44.344,20.6353 46,20.6353 L46,20.6353 Z M36.082,53.9973 C22.889,52.4973 15.787,48.3853 15.787,45.1543 L15.787,40.6483 C16.883,41.5963 18.408,42.5623 20.521,43.4893 C24.506,45.2373 29.996,46.5643 36.082,47.2593 L36.082,53.9973 Z M15.787,53.4203 L15.787,49.9823 C19.387,53.1393 26.568,55.5423 36.082,56.5873 L36.082,62.2623 C22.889,60.7623 15.787,56.6513 15.787,53.4203 L15.787,53.4203 Z M76.211,35.8583 C76.211,39.3493 68.215,43.7213 53.396,44.9503 C52.723,45.0063 52.219,45.5713 52.221,46.2343 L52.215,46.2343 L52.232,54.5653 C52.232,55.5863 51.402,56.4163 50.381,56.4163 C49.359,56.4163 48.529,55.5863 48.529,54.5653 L48.529,46.6753 L48.512,46.6753 C48.518,46.6213 48.527,46.5683 48.525,46.5123 C48.518,45.8073 47.943,45.2423 47.24,45.2423 L47.223,45.2423 C46.049,45.2563 44.844,45.2503 43.678,45.2203 L43.645,45.2203 C42.951,45.2203 42.377,45.7763 42.359,46.4753 C42.357,46.5443 42.367,46.6093 42.375,46.6753 L42.357,46.6753 L42.357,63.5413 C42.357,64.5623 41.529,65.3923 40.508,65.3923 C39.488,65.3923 38.656,64.5623 38.656,63.5413 L38.656,46.3813 L38.621,46.3813 C38.633,46.3323 38.646,46.2833 38.65,46.2313 C38.721,45.5243 38.205,44.8933 37.498,44.8233 C23.396,43.4163 15.787,39.1543 15.787,35.8583 C15.787,35.7423 15.797,35.6263 15.813,35.5093 C16.299,32.2463 23.547,28.5123 35.605,27.0693 C35.639,27.0653 35.668,27.0603 35.699,27.0573 C36.068,27.0133 36.441,26.9733 36.818,26.9343 C36.893,26.9263 36.963,26.9183 37.035,26.9113 C37.381,26.8763 37.734,26.8433 38.088,26.8123 L38.146,26.8063 C37.996,27.5313 37.908,28.2413 37.908,28.9003 C37.908,33.9673 40.932,36.9923 46,36.9923 C54.092,36.9923 54.092,30.9013 54.092,28.9003 C54.092,28.2413 54.004,27.5313 53.852,26.8063 C67.887,28.0393 76.211,32.2843 76.211,35.8583 L76.211,35.8583 Z M76.211,45.1543 C76.211,46.9913 73.992,48.9873 70.119,50.6303 C66.211,52.2893 60.816,53.5113 54.805,54.1153 L54.789,47.4073 C63.504,46.5553 72.072,44.2713 76.211,40.6813 L76.211,45.1543 Z M45.957,54.5443 C45.613,54.5443 45.271,54.5423 44.932,54.5383 L44.932,47.8163 C45.271,47.8203 45.615,47.8233 45.957,47.8233 L45.957,54.5443 Z M76.211,53.4203 C76.211,57.8613 63.803,62.8113 46,62.8113 C45.645,62.8113 45.289,62.8013 44.932,62.7983 L44.932,57.1133 C45.285,57.1163 45.641,57.1193 46,57.1193 C46.258,57.1193 46.514,57.1153 46.77,57.1133 C47.572,58.2463 48.891,58.9893 50.381,58.9893 C52.023,58.9893 53.455,58.0883 54.221,56.7563 C63.141,55.9473 71.984,53.6483 76.211,49.9813 L76.211,53.4203 Z M70.719,27.8443 C66.15,25.9803 59.885,24.6793 53.012,24.1563 C52.695,23.4143 52.324,22.6893 51.895,22.0193 C50.256,19.4673 48.162,18.0623 46,18.0623 C43.836,18.0623 41.744,19.4673 40.104,22.0193 C39.674,22.6893 39.303,23.4143 38.986,24.1563 C38.76,24.1743 38.531,24.1903 38.307,24.2093 C38.154,24.2223 38.004,24.2373 37.852,24.2513 C37.562,24.2763 37.275,24.3013 36.99,24.3303 C36.836,24.3453 36.684,24.3633 36.531,24.3793 C36.25,24.4093 35.969,24.4383 35.691,24.4703 C35.539,24.4883 35.391,24.5083 35.24,24.5253 C34.961,24.5593 34.686,24.5923 34.41,24.6303 C34.264,24.6493 34.119,24.6703 33.975,24.6903 C33.699,24.7283 33.422,24.7663 33.148,24.8073 C33.01,24.8283 32.871,24.8503 32.732,24.8723 C32.457,24.9153 32.184,24.9573 31.914,25.0033 C31.777,25.0253 31.645,25.0503 31.512,25.0723 C31.24,25.1203 30.969,25.1663 30.701,25.2163 C30.574,25.2393 30.449,25.2643 30.322,25.2893 C30.053,25.3413 29.781,25.3913 29.516,25.4463 C29.395,25.4703 29.277,25.4973 29.156,25.5223 C28.891,25.5793 28.623,25.6343 28.361,25.6933 C28.246,25.7193 28.131,25.7473 28.016,25.7733 C27.754,25.8343 27.494,25.8943 27.236,25.9573 C27.123,25.9853 27.014,26.0143 26.9,26.0433 C26.646,26.1063 26.393,26.1713 26.146,26.2363 C26.031,26.2673 25.92,26.3003 25.807,26.3313 C25.564,26.3963 25.324,26.4643 25.09,26.5323 C24.973,26.5653 24.861,26.6003 24.748,26.6343 C24.52,26.7033 24.291,26.7713 24.068,26.8423 C23.949,26.8803 23.836,26.9193 23.719,26.9573 C23.506,27.0273 23.291,27.0963 23.084,27.1683 C22.965,27.2093 22.848,27.2533 22.729,27.2953 C22.531,27.3663 22.332,27.4363 22.139,27.5093 C22.018,27.5533 21.902,27.6013 21.783,27.6473 C21.615,27.7133 21.443,27.7773 21.279,27.8443 C21.264,27.8503 21.25,27.8563 21.236,27.8623 C21.225,27.8673 21.215,27.8713 21.205,27.8753 C21.078,27.9263 20.963,27.9793 20.84,28.0323 C20.652,28.1123 20.461,28.1913 20.281,28.2733 C20.154,28.3303 20.037,28.3883 19.914,28.4453 C19.736,28.5293 19.553,28.6123 19.383,28.6973 C19.27,28.7543 19.162,28.8123 19.053,28.8703 C18.883,28.9583 18.707,29.0463 18.545,29.1353 C18.443,29.1913 18.35,29.2493 18.25,29.3053 C18.086,29.3993 17.922,29.4923 17.766,29.5873 C17.676,29.6413 17.594,29.6973 17.508,29.7533 C17.352,29.8513 17.193,29.9503 17.047,30.0503 C16.969,30.1043 16.896,30.1593 16.82,30.2133 C16.674,30.3173 16.525,30.4213 16.389,30.5273 C16.32,30.5783 16.262,30.6313 16.195,30.6823 C16.059,30.7933 15.92,30.9023 15.791,31.0143 C15.732,31.0643 15.682,31.1153 15.627,31.1663 C15.5,31.2813 15.371,31.3963 15.254,31.5133 C15.203,31.5633 15.16,31.6153 15.111,31.6663 C14.998,31.7843 14.883,31.9023 14.779,32.0223 C14.734,32.0743 14.699,32.1263 14.656,32.1763 C14.557,32.2993 14.455,32.4203 14.367,32.5433 C14.328,32.5953 14.299,32.6483 14.262,32.7003 C14.178,32.8243 14.092,32.9473 14.016,33.0733 C13.982,33.1303 13.955,33.1883 13.924,33.2463 C13.855,33.3683 13.787,33.4893 13.729,33.6123 C13.697,33.6793 13.674,33.7493 13.645,33.8173 C13.596,33.9313 13.543,34.0453 13.504,34.1613 C13.475,34.2433 13.457,34.3273 13.432,34.4113 C13.402,34.5133 13.367,34.6153 13.344,34.7183 C13.318,34.8223 13.305,34.9263 13.289,35.0323 C13.275,35.1163 13.256,35.1993 13.246,35.2843 C13.225,35.4733 13.213,35.6653 13.213,35.8583 L13.213,61.9713 C13.213,64.4103 14.965,67.9113 23.313,70.7413 C29.393,72.8013 37.449,73.9363 46,73.9363 C54.551,73.9363 62.605,72.8013 68.686,70.7413 C77.033,67.9113 78.785,64.4103 78.785,61.9713 L78.785,35.8583 C78.785,32.7673 75.998,29.9963 70.719,27.8443 L70.719,27.8443 Z" id="Fill-9" fill="#000000"></path>
        </g>
    </g>
</svg>