<?xml version="1.0" encoding="UTF-8" standalone="no"?>
<svg width="92px" height="92px" viewBox="0 0 92 92" version="1.1" xmlns="http://www.w3.org/2000/svg" xmlns:xlink="http://www.w3.org/1999/xlink">
    <!-- Generator: Sketch 3.6.1 (26313) - http://www.bohemiancoding.com/sketch -->
    <title>Page 1</title>
    <desc>Created with Sketch.</desc>
    <defs>
        <path id="path-1" d="M0.8704,47.4551864 C7.19730284,50.7325747 14.3822697,52.584 22,52.584 C31.3683416,52.584 40.0821604,49.7838554 47.3504,44.9749235 L47.3504,0.3096 L0.8704,0.3096 L0.8704,47.4551864 L0.8704,47.4551864 Z"></path>
        <path id="path-3" d="M0.0154,24.0884325 C4.71236994,25.7058144 9.75354876,26.584 15,26.584 C21.8552486,26.584 28.3600312,25.0846555 34.2044,22.3960324 L34.2044,0.6661 L0.0154,0.6661 L0.0154,24.0884325 L0.0154,24.0884325 Z"></path>
    </defs>
    <g id="Page-1" stroke="none" stroke-width="1" fill="none" fill-rule="evenodd">
        <g>
            <path d="M92,46.0005 C92,71.4055 71.406,92.0005 46,92.0005 C20.594,92.0005 0,71.4055 0,46.0005 C0,20.5955 20.594,0.0005 46,0.0005 C71.406,0.0005 92,20.5955 92,46.0005" id="Fill-1" fill="#EFB6E2"></path>
            <g id="Group-19" transform="translate(19.000000, 24.417000)">
                <g id="Group-5" transform="translate(5.000000, 15.000000)">
                    <mask id="mask-2" fill="white">
                        <use xlink:href="#path-1"></use>
                    </mask>
                    <g id="Clip-4"></g>
                    <path d="M24.1094,63.6826 C13.1254,63.6826 4.1864,54.7446 4.1864,43.7596 C4.1864,32.9896 12.7794,24.1936 23.4674,23.8526 C23.5634,23.8696 23.6574,23.8796 23.7524,23.8796 C23.8714,23.8796 23.9894,23.8626 24.1044,23.8366 L24.1094,23.8366 C35.0944,23.8366 44.0334,32.7746 44.0334,43.7596 C44.0334,54.7446 35.0944,63.6826 24.1094,63.6826 L24.1094,63.6826 Z M13.9664,3.6266 L18.3494,3.6266 L12.7394,7.5766 L13.9664,3.6266 Z M35.2804,7.8886 L28.9914,3.6266 L33.6664,3.6266 L35.2804,7.8886 Z M14.9464,10.0796 L23.6054,3.9836 L32.6004,10.0796 L14.9464,10.0796 Z M33.3124,13.3976 L23.7764,20.1696 L14.7044,13.3976 L33.3124,13.3976 Z M28.4354,20.9296 L39.4724,13.0916 C39.6334,12.9766 39.7674,12.8376 39.8754,12.6826 C39.8924,12.6566 39.9064,12.6286 39.9224,12.6026 C39.9584,12.5436 39.9924,12.4846 40.0194,12.4236 C40.0354,12.3886 40.0474,12.3526 40.0614,12.3176 C40.0854,12.2576 40.1024,12.1976 40.1184,12.1356 C40.1274,12.0986 40.1354,12.0616 40.1424,12.0246 C40.1554,11.9516 40.1624,11.8776 40.1654,11.8026 C40.1664,11.7806 40.1714,11.7606 40.1714,11.7396 C40.1714,11.7316 40.1704,11.7256 40.1694,11.7196 C40.1684,11.6166 40.1584,11.5146 40.1384,11.4116 C40.1344,11.3916 40.1264,11.3726 40.1214,11.3516 C40.1044,11.2846 40.0884,11.2176 40.0634,11.1516 L36.3624,1.3806 C36.1184,0.7356 35.5014,0.3096 34.8104,0.3096 L23.5924,0.3096 L23.5904,0.3096 L12.7464,0.3096 C12.0194,0.3096 11.3784,0.7826 11.1624,1.4756 L8.1254,11.2466 C8.1144,11.2776 8.1104,11.3096 8.1024,11.3406 C8.0944,11.3706 8.0864,11.3996 8.0804,11.4306 C8.0774,11.4466 8.0754,11.4616 8.0714,11.4766 C8.0594,11.5516 8.0554,11.6266 8.0524,11.7016 C8.0524,11.7146 8.0484,11.7266 8.0484,11.7396 C8.0484,11.7416 8.0494,11.7436 8.0494,11.7466 C8.0494,11.7516 8.0494,11.7576 8.0504,11.7636 C8.0504,11.7836 8.0534,11.8036 8.0554,11.8236 C8.0584,11.8966 8.0664,11.9706 8.0804,12.0426 C8.0824,12.0556 8.0834,12.0686 8.0864,12.0806 C8.0904,12.1056 8.1004,12.1296 8.1064,12.1536 C8.1224,12.2136 8.1404,12.2716 8.1624,12.3296 C8.1714,12.3496 8.1744,12.3716 8.1834,12.3916 C8.1904,12.4076 8.1994,12.4216 8.2064,12.4356 C8.2344,12.4966 8.2674,12.5566 8.3034,12.6146 C8.3174,12.6356 8.3284,12.6586 8.3434,12.6796 C8.3464,12.6836 8.3474,12.6896 8.3514,12.6936 C8.3514,12.6946 8.3524,12.6956 8.3534,12.6966 C8.4054,12.7706 8.4644,12.8396 8.5294,12.9056 C8.5434,12.9186 8.5574,12.9286 8.5704,12.9416 C8.5784,12.9486 8.5874,12.9546 8.5944,12.9626 C8.6164,12.9826 8.6384,13.0016 8.6614,13.0206 C8.6794,13.0356 8.6964,13.0536 8.7154,13.0676 L19.3564,21.0096 C8.8144,23.2096 0.8704,32.5736 0.8704,43.7596 C0.8704,56.5746 11.2964,66.9996 24.1094,66.9996 C36.9254,66.9996 47.3504,56.5746 47.3504,43.7596 C47.3504,32.4236 39.1894,22.9626 28.4354,20.9296 L28.4354,20.9296 Z" id="Fill-3" fill="#000000" mask="url(#mask-2)"></path>
                </g>
                <g id="Group-8" transform="translate(12.000000, 41.000000)">
                    <mask id="mask-4" fill="white">
                        <use xlink:href="#path-3"></use>
                    </mask>
                    <g id="Clip-7"></g>
                    <path d="M17.1094,31.5371 C9.5124,31.5371 3.3334,25.3561 3.3334,17.7601 C3.3334,10.1631 9.5124,3.9831 17.1094,3.9831 C24.7064,3.9831 30.8864,10.1631 30.8864,17.7601 C30.8864,25.3561 24.7064,31.5371 17.1094,31.5371 M17.1094,0.6661 C7.6844,0.6661 0.0154,8.3341 0.0154,17.7601 C0.0154,27.1861 7.6844,34.8541 17.1094,34.8541 C26.5364,34.8541 34.2044,27.1861 34.2044,17.7601 C34.2044,8.3341 26.5364,0.6661 17.1094,0.6661" id="Fill-6" fill="#000000" mask="url(#mask-4)"></path>
                </g>
                <path d="M28.2891,8.4092 C29.2051,8.4092 29.9471,7.6662 29.9471,6.7502 L29.9471,2.4972 C29.9471,1.5822 29.2051,0.8392 28.2891,0.8392 C27.3731,0.8392 26.6301,1.5822 26.6301,2.4972 L26.6301,6.7502 C26.6301,7.6662 27.3731,8.4092 28.2891,8.4092" id="Fill-9" fill="#000000"></path>
                <path d="M7.7422,30.1982 C7.7422,29.2822 6.9992,28.5402 6.0832,28.5402 L1.8302,28.5402 C0.9142,28.5402 0.1722,29.2822 0.1722,30.1982 C0.1722,31.1142 0.9142,31.8572 1.8302,31.8572 L6.0832,31.8572 C6.9992,31.8572 7.7422,31.1142 7.7422,30.1982" id="Fill-11" fill="#000000"></path>
                <path d="M3.3906,11.2622 L6.8806,13.6932 C7.1696,13.8942 7.5006,13.9902 7.8276,13.9902 C8.3526,13.9902 8.8686,13.7422 9.1906,13.2802 C9.7136,12.5282 9.5286,11.4942 8.7766,10.9702 L5.2866,8.5402 C4.5346,8.0162 3.4996,8.2012 2.9766,8.9532 C2.4536,9.7042 2.6386,10.7392 3.3906,11.2622" id="Fill-13" fill="#000000"></path>
                <path d="M56.1689,28.54 L51.9149,28.54 C50.9999,28.54 50.2569,29.283 50.2569,30.198 C50.2569,31.114 50.9999,31.857 51.9149,31.857 L56.1689,31.857 C57.0849,31.857 57.8269,31.114 57.8269,30.198 C57.8269,29.283 57.0849,28.54 56.1689,28.54" id="Fill-15" fill="#000000"></path>
                <path d="M50.1709,13.9902 C50.4979,13.9902 50.8279,13.8942 51.1169,13.6932 L54.6079,11.2622 C55.3609,10.7392 55.5449,9.7042 55.0219,8.9532 C54.4989,8.2012 53.4649,8.0162 52.7129,8.5402 L49.2219,10.9702 C48.4709,11.4942 48.2849,12.5282 48.8089,13.2802 C49.1309,13.7422 49.6469,13.9902 50.1709,13.9902" id="Fill-17" fill="#000000"></path>
            </g>
        </g>
    </g>
</svg>